<?xml version="1.0" encoding="UTF-8" standalone="no"?>
<!-- Created with Inkscape (http://www.inkscape.org/) -->

<svg
   width="300mm"
   height="226.75829mm"
   viewBox="0 0 300 226.75829"
   version="1.1"
   id="svg1"
   xml:space="preserve"
   sodipodi:docname="razorbill_inflight.svg"
   inkscape:version="1.4 (e7c3feb100, 2024-10-09)"
   inkscape:export-filename="razorbill_inflight.png"
   inkscape:export-xdpi="96"
   inkscape:export-ydpi="96"
   xmlns:inkscape="http://www.inkscape.org/namespaces/inkscape"
   xmlns:sodipodi="http://sodipodi.sourceforge.net/DTD/sodipodi-0.dtd"
   xmlns="http://www.w3.org/2000/svg"
   xmlns:svg="http://www.w3.org/2000/svg"><sodipodi:namedview
     id="namedview1"
     pagecolor="#ffffff"
     bordercolor="#000000"
     borderopacity="0.25"
     inkscape:showpageshadow="2"
     inkscape:pageopacity="0.0"
     inkscape:pagecheckerboard="0"
     inkscape:deskcolor="#d1d1d1"
     inkscape:document-units="mm"
     inkscape:zoom="0.25"
     inkscape:cx="432"
     inkscape:cy="814"
     inkscape:window-width="1920"
     inkscape:window-height="1057"
     inkscape:window-x="0"
     inkscape:window-y="0"
     inkscape:window-maximized="1"
     inkscape:current-layer="svg1"
     inkscape:export-bgcolor="#ffffff00" /><defs
     id="defs1" /><g
     id="g1"
     inkscape:label="razorbill"
     transform="matrix(1.0987911,0,0,1.0987911,4.1482266e-6,1.4860326e-6)"><path
       style="display:inline;fill:#000000;fill-opacity:1;stroke:#000000;stroke-width:0.1;stroke-linecap:round;stroke-linejoin:bevel;stroke-dasharray:none;stroke-opacity:1"
       d="m 265.9942,168.86615 c 0,0 -1.39615,0.21715 -2.10013,0.26459 -1.0639,0.0717 -2.13558,-0.0516 -3.19879,0.0296 -1.51167,0.11545 -3.07687,0.11669 -4.50164,0.64914 -1.43261,0.53538 -2.9235,0.90216 -4.40134,1.29586 -1.91274,0.50956 -3.87038,0.84352 -5.77601,1.3791 -3.27999,0.92184 -6.47386,2.12688 -9.72275,3.15299 -6.22486,1.96603 -12.52705,3.68815 -18.71927,5.75469 -1.91194,0.63807 -3.79576,1.35764 -5.68854,2.05052 -3.71647,1.36047 -7.25687,3.31865 -11.1291,4.13652 -3.09133,0.65293 -6.36756,-0.0689 -9.46127,0.57262 -7.62601,1.5814 -14.58641,5.47196 -21.96023,7.97867 -8.51228,2.89373 -16.85665,6.59336 -25.7119,8.14812 -11.7366,2.06066 -23.80675,1.76867 -35.71875,1.45521 -10.520413,-0.27684 -21.127053,-0.81951 -31.434743,-2.94252 -4.80656,-0.98997 -9.17439,-3.68075 -14.00744,-4.53196 -20.51176,-3.61257 -62.44241,-2.23375 -62.44241,-2.23375 L 127.52082,140.7408 c 0,0 12.67461,-5.41535 19.39107,-5.88762 8.79511,-0.61842 19.7175,0.52688 29.33498,2.47658 3.17051,0.64273 6.09693,2.18957 9.22507,3.01417 2.35225,0.62006 4.74102,1.13006 7.15281,1.44758 4.86396,0.64037 9.80349,0.4709 14.68939,0.91372 3.91933,0.35522 7.84879,0.70727 11.72319,1.3975 4.93166,0.87857 11.58471,2.13813 14.61853,3.48383 3.03383,1.3457 3.65367,1.75062 5.74203,2.5304 2.08837,0.77978 3.84491,1.29976 6.32502,1.92001 2.48012,0.62025 7.50041,1.62037 9.67301,1.98713 2.1726,0.36675 3.98664,0.36012 5.95127,0.72635 1.44583,0.26952 2.9425,0.46363 4.27814,1.07936 1.8598,0.85738 3.866,2.09635 5.01167,3.55371 1.14567,1.45737 1.42744,2.68889 1.80524,3.88459 0.37781,1.19569 0.48976,2.02907 0.52917,2.94349 0.0394,0.91441 -0.13171,2.00316 -0.13171,2.00316 0,0 -0.0513,-0.23451 -0.4495,-0.34371 -0.71237,0.12389 -2.32651,-0.11994 -3.84939,0.11871 z"
       id="path3"
       sodipodi:nodetypes="caasaaaaaaaaaaaaccsaaaaazzzzaazzzcccc"
       inkscape:label="black_body" /><path
       style="display:inline;fill:#ffffff;fill-opacity:1;stroke:#000000;stroke-width:0.1;stroke-linecap:round;stroke-linejoin:bevel;stroke-dasharray:none;stroke-opacity:1"
       d="m 265.8974,158.03727 c -0.25532,-0.57727 -0.69322,-1.07833 -1.1779,-1.48269 -0.97893,-0.81672 -3.37253,-1.80391 -3.37253,-1.80391 0,0 1.77694,1.39588 2.42995,2.3 0.50967,0.70566 0.87753,1.5253 1.10795,2.36471 0.47304,1.7233 0.45548,3.54982 0.52266,5.33561 0.0527,1.40158 -0.0915,3.40065 -0.0944,4.20665 0.84228,-0.0818 0.64678,-0.0517 1.34848,-0.28946 0.20622,-1.32214 0.20882,-3.66497 0.0734,-5.49018 -0.12848,-1.73141 -0.13528,-3.55293 -0.83754,-5.14073 z"
       id="path2"
       sodipodi:nodetypes="aacaaaccaa"
       inkscape:label="white_beak_highlight" /><path
       style="display:inline;fill:#ffffff;fill-opacity:1;stroke:none;stroke-width:0.1;stroke-linecap:round;stroke-linejoin:bevel;stroke-dasharray:none;stroke-opacity:1"
       d="m 235.62974,154.31674 c 1.64875,1.7806 6.17624,0.86416 12.12039,1.03364 3.18204,0.0907 5.12456,6e-5 9.54472,1.20397 -3.0273,-2.28012 -6.55044,-2.25515 -9.87138,-2.39661 -3.85152,-0.16405 -9.21195,0.99764 -11.79373,0.159 z"
       id="path4"
       sodipodi:nodetypes="cscsc"
       inkscape:label="white_eye_highlight" /><path
       style="display:inline;fill:#ffffff;fill-opacity:1;stroke:none;stroke-width:0.0906858;stroke-linecap:round;stroke-linejoin:bevel;stroke-dasharray:none;stroke-opacity:1"
       d="m 185.44444,156.14232 c -8.12258,-8.92654 -19.94964,-18.96962 -23.37011,-27.65452 0.5843,-6.61064 2.26484,-12.60592 5.85275,-17.63862 3.23648,-3.39902 6.3265,-7.48821 4.57642,-12.96476 -0.74956,-5.57293 -0.25257,-11.22954 -0.98868,-16.77953 -1.22456,-5.86083 -0.52184,-12.16107 1.24709,-17.81901 2.7494,-7.41281 0.97895,-15.36746 -0.66049,-22.7926 -0.25794,-5.12085 0.0787,-10.35131 -1.7606,-15.25303 -1.82251,-7.1607 -4.62289,-12.7911 -8.28862,-18.44935 -2.62122,-4.04598 -3.29081,-1.9357 -4.66496,1.82333 -1.47332,-1.09957 -4.0409,-5.59243 -4.03357,-0.57057 0.24572,7.91395 -6.31522,-5.89967 -6.0191,1.41567 2.16559,4.9845 -3.47538,5.51319 -5.50891,1.80294 -3.58283,0.73374 1.93556,11.06192 -3.8468,7.30589 -2.48899,-3.59241 -5.01972,-2.57592 -3.35132,1.45731 2.57607,4.44998 -3.33035,6.07231 -6.05509,3.3064 -4.42797,0.24197 2.51154,11.31502 -4.4347,6.88416 -3.03625,3.74166 4.33975,13.24509 -3.85291,12.54057 -5.27943,-3.66417 -3.43512,2.46579 0.35894,5.93885 2.68075,4.74718 -6.13125,2.08408 -2.70227,7.3332 2.08141,2.89578 2.9691,6.04479 0.16158,8.42728 1.61625,3.28376 5.93478,7.62038 2.1057,10.63877 1.78592,4.37538 3.39604,9.1843 1.07448,13.28758 -1.39601,1.59214 -3.07447,5.1583 -6.42999,6.34841 0.1663,2.39703 -0.53587,3.63889 -2.68965,5.43374 2.62906,2.60147 -3.38379,3.70108 -0.58487,6.47544 -3.21812,2.24994 0.59113,4.53812 -2.47917,6.95981 2.49734,1.5091 -0.21785,3.7053 1.45954,5.60074 -2.85808,3.39431 5.97618,10.69504 -0.78846,10.46215 0.0457,3.18734 1.81549,6.65324 -1.84473,5.90083 1.58591,4.53344 3.3271,7.80278 6.75851,10.84295 2.89666,1.79089 3.53642,3.32285 5.56613,4.62745 3.12342,2.00758 6.86265,2.41937 10.03506,4.83455 -5.51174,-0.47272 -6.06032,-0.30257 -9.01288,0.25923 -2.5309,0.48157 -5.04623,1.32545 -7.26747,2.63062 -4.00671,2.35426 -6.7134,6.4844 -10.52555,9.14217 -6.020873,4.19767 -12.757253,7.55749 -19.297233,10.60467 -14.50999,6.76067 -33.86782,18.23772 -33.86782,18.23772 0,0 15.74317,4.23353 23.72701,5.85005 4.58709,0.92877 9.16897,1.51168 13.86603,2.20656 9.80789,1.45098 20.203143,1.72241 30.319883,1.50505 11.00815,-0.23652 22.11597,-0.7858 32.89068,-3.05317 7.81012,-1.64353 15.21523,-4.84217 22.711,-7.58307 5.41485,-1.97999 10.46511,-5.04576 16.06996,-6.39728 3.58287,-0.86396 7.43406,-0.13971 11.00749,-1.04194 3.95989,-0.99982 11.28406,-4.77424 11.28406,-4.77424 -9.80879,-12.52213 -18.17049,-17.8877 -26.74636,-27.3124 z"
       id="path7-1-5"
       sodipodi:nodetypes="acccccccsccccccccccccccccccccccacaaascasaaaaaca"
       inkscape:label="white_underside" /><path
       id="bleed_over"
       style="display:inline;fill:#000000;fill-opacity:1;stroke:#000000;stroke-width:0.1;stroke-linecap:round;stroke-linejoin:bevel;stroke-dasharray:none;stroke-opacity:1"
       d="m 158.94204,0.08247 c 0.51855,-0.14206 1.12409,0.17647 1.94768,1.00976 5.45074,5.51491 11.33571,13.09422 13.41056,20.7424 2.0938,5.23531 1.71042,10.82204 2.00402,16.29151 1.86639,7.93041 3.88206,16.42643 0.75189,24.34374 -2.01377,6.04301 -2.81379,12.77169 -1.41955,19.03138 0.83791,5.92772 0.27213,11.96969 1.12551,17.92191 3.61493,10.61225 -19.56959,18.86706 -10.10224,36.24171 -0.0734,-0.01 -0.14669,-0.0167 -0.22014,-0.0263 -14.97801,-18.49007 9.43128,-27.13358 6.00067,-37.86901 -0.74955,-5.57293 -0.25246,-11.22985 -0.98857,-16.77985 -1.22456,-5.86081 -0.52197,-12.16112 1.24695,-17.81906 2.74942,-7.41281 0.97903,-15.36728 -0.66042,-22.79241 -0.25794,-5.12085 0.0787,-10.35109 -1.76062,-15.25281 -1.8225,-7.1607 -4.62265,-12.79128 -8.28838,-18.44952 -2.62122,-4.04599 -3.2912,-1.93589 -4.66535,1.82314 -1.47332,-1.09957 -4.04069,-5.59236 -4.03336,-0.57051 0.24572,7.91395 -6.31539,-5.89941 -6.01927,1.41594 2.16559,4.98449 -3.47517,5.51324 -5.5087,1.80299 -3.58283,0.73374 1.93556,11.06153 -3.8468,7.30549 -2.48899,-3.5924 -5.01961,-2.57595 -3.35121,1.45728 2.57607,4.44999 -3.33071,6.07269 -6.05545,3.30678 -4.42797,0.24196 2.51189,11.31468 -4.43435,6.88381 -3.03625,3.74167 4.33966,13.24536 -3.853,12.54084 -5.27943,-3.66417 -3.43542,2.4656 0.35864,5.93866 2.68075,4.74718 -6.13114,2.08428 -2.70216,7.3334 2.08141,2.89578 2.96926,6.04489 0.16174,8.42739 1.61625,3.28376 6.06719,7.7856 2.23811,10.80399 6.71379,12.40723 -3.43293,18.94255 -3.85482,18.69447 -0.42191,-0.24807 9.41018,-5.59282 1.97431,-19.85615 4.35927,-3.22381 -0.8766,-6.65699 -2.71663,-10.16424 3.19631,-2.54465 0.162,-6.90705 -2.20761,-9.99991 -3.9038,-5.60637 5.91534,-1.96238 2.86339,-7.03264 -4.31938,-3.70943 -2.69129,-10.05687 3.31917,-6.1433 9.32712,0.7525 -1.51986,-9.69746 1.93684,-13.69373 7.90809,4.73243 0.6465,-6.59489 5.68751,-6.85333 3.10207,2.95415 8.22913,1.7211 5.29631,-3.03186 -2.75136,-4.20777 2.1531,-5.79304 3.81527,-1.5565 6.58312,4.01161 -0.33868,-7.71854 3.74034,-8.50232 2.31508,3.96277 6.60735,3.69752 4.14187,-1.62626 -0.33711,-7.81315 7.87769,6.84078 7.59799,-1.61178 -0.008,-5.36365 2.91476,-0.56503 4.59197,0.60926 0.99036,-2.54185 1.61364,-4.05754 2.47789,-4.29431 z"
       sodipodi:nodetypes="csccccccccccccscccccccccccccsccccccccccccccc"
       inkscape:label="black_bleed_over" /></g></svg>
